HIERARCHY
ROOT Hips
{
	OFFSET 0.000000 0.000000 0.000000 
	CHANNELS 6 Xposition Yposition Zposition Zrotation Yrotation Xrotation
	JOINT LeftUpLeg
	{
		OFFSET 1.363060 -1.794630 0.839290 
		CHANNELS 3 Zrotation Yrotation Xrotation
		JOINT LeftLeg
		{
			OFFSET 2.448110 -6.726130 0.000000 
			CHANNELS 3 Zrotation Yrotation Xrotation
			JOINT LeftFoot
			{
				OFFSET 2.562200 -7.039590 0.000000 
				CHANNELS 3 Zrotation Yrotation Xrotation
				JOINT LeftToeBase
				{
					OFFSET 0.157640 -0.433110 2.322550 
					CHANNELS 3 Zrotation Yrotation Xrotation
					End Site
					{
						OFFSET 0.000000 0.000000 0.000000 
					}
				}
			}
		}
	}
	JOINT RightUpLeg
	{
		OFFSET -1.305520 -1.794630 0.839290 
		CHANNELS 3 Zrotation Yrotation Xrotation
		JOINT RightLeg
		{
			OFFSET -2.542530 -6.985550 0.000000 
			CHANNELS 3 Zrotation Yrotation Xrotation
			JOINT RightFoot
			{
				OFFSET -2.568260 -7.056230 0.000000 
				CHANNELS 3 Zrotation Yrotation Xrotation
				JOINT RightToeBase
				{
					OFFSET -0.164730 -0.452590 2.363150 
					CHANNELS 3 Zrotation Yrotation Xrotation
					End Site
					{
						OFFSET 0.000000 0.000000 0.000000 
					}
				}
			}
		}
	}
	JOINT Spine
	{
		OFFSET 0.028270 2.035590 -0.193380 
		CHANNELS 3 Zrotation Yrotation Xrotation
		JOINT Spine1
		{
			OFFSET 0.056720 2.048850 -0.042750 
			CHANNELS 3 Zrotation Yrotation Xrotation
			JOINT Neck1
			{
				OFFSET -0.054170 1.746240 0.172020 
				CHANNELS 3 Zrotation Yrotation Xrotation
				JOINT Head
				{
					OFFSET 0.104070 1.761360 -0.123970 
					CHANNELS 3 Zrotation Yrotation Xrotation
					End Site
					{
						OFFSET 0.000000 0.000000 0.000000 
					}
				}
			}
			JOINT LeftArm
			{
				OFFSET 3.362410 1.200890 -0.311210 
				CHANNELS 3 Zrotation Yrotation Xrotation
				JOINT LeftForeArm
				{
					OFFSET 4.983000 -0.000000 -0.000000 
					CHANNELS 3 Zrotation Yrotation Xrotation
					JOINT LeftHand
					{
						OFFSET 3.483560 -0.000000 -0.000000 
						CHANNELS 3 Zrotation Yrotation Xrotation
						JOINT LeftHandIndex1
						{
							OFFSET 0.715260 -0.000000 -0.000000 
							CHANNELS 3 Zrotation Yrotation Xrotation
							End Site
							{
								OFFSET 0.000000 0.000000 0.000000 
							}
						}
					}
				}
			}
			JOINT RightArm
			{
				OFFSET -3.136600 1.374050 -0.404650 
				CHANNELS 3 Zrotation Yrotation Xrotation
				JOINT RightForeArm
				{
					OFFSET -5.241900 -0.000000 -0.000000 
					CHANNELS 3 Zrotation Yrotation Xrotation
					JOINT RightHand
					{
						OFFSET -3.444170 -0.000000 -0.000000 
						CHANNELS 3 Zrotation Yrotation Xrotation
						JOINT RightHandIndex1
						{
							OFFSET -0.622530 -0.000000 -0.000000 
							CHANNELS 3 Zrotation Yrotation Xrotation
							End Site
							{
								OFFSET 0.000000 0.000000 0.000000 
							}
						}
					}
				}
			}
		}
	}
}
MOTION
Frames: 18
Frame Time: 0.041667
1.904543 17.643048 3.533126 -8.126558 -30.641988 22.065482 -18.670919 12.678347 -1.664201 2.848396 -15.115392 -40.527227 -3.490309 29.174691 20.419490 0.011000 -0.677300 -1.861400 5.610455 23.500017 -15.326703 0.958837 6.435421 -15.673837 4.115896 -21.480505 8.835204 -0.026600 1.053100 -2.895000 -8.867739 -0.837328 29.320923 0.119735 -0.569427 -21.191196 -7.189443 10.938883 16.961327 -2.404300 4.938700 9.193700 -75.842084 -43.985794 17.177892 62.697951 -54.217253 -35.125429 -0.759224 0.360772 -81.588418 -7.125000 0.000000 0.000000 82.018110 2.142322 65.346973 -112.630796 50.903822 -75.820341 1.253183 1.412960 -0.839485 7.125000 0.000000 0.000000 
1.902445 17.637653 3.528630 -8.492146 -30.801203 22.178697 -18.430635 12.990885 -1.600347 2.889170 -15.163927 -40.661468 -3.484953 29.145294 20.410347 0.011900 -0.705600 -1.939000 5.991530 23.546288 -15.315460 0.965139 6.420960 -15.629071 4.026474 -21.251131 9.151168 -0.026100 1.042800 -2.866500 -8.615244 -0.793754 29.588139 0.076241 -0.543277 -21.018790 -7.159335 10.926936 16.102788 -2.396400 4.933100 8.982900 -75.626796 -43.475143 17.590016 66.253961 -54.910950 -38.134905 -0.744203 0.326064 -79.449252 -7.125000 0.000000 0.000000 81.839474 2.548007 65.637360 -113.297977 50.749265 -76.531339 1.283827 1.431188 -0.436030 7.125000 0.000000 0.000000 
1.894352 17.632657 3.520237 -8.869815 -31.381505 22.367580 -18.332956 13.612529 -1.610848 2.945122 -15.227073 -40.850175 -3.486796 29.189326 20.428465 0.015100 -0.792400 -2.177700 6.280225 23.877562 -15.397559 0.970682 6.393475 -15.550317 3.906382 -20.932390 9.579983 -0.026500 1.051300 -2.890000 -8.560097 -0.484804 29.709385 0.048795 -0.371679 -20.930002 -6.792671 10.738792 15.387211 -2.292200 4.872000 8.730200 -75.662291 -43.216179 18.116776 69.085465 -55.355372 -40.556038 -0.735655 0.312927 -78.516243 -7.125000 0.000000 0.000000 81.980113 2.319552 65.570156 -114.920563 50.322570 -78.245102 1.316700 1.493687 0.061729 7.125000 0.000000 0.000000 
1.911936 17.618469 3.517539 -8.748258 -31.247648 22.673133 -18.392717 13.046105 -1.784371 2.990186 -15.267942 -41.055547 -3.521823 29.480592 20.478053 0.014700 -0.781900 -2.148900 6.093938 23.571072 -15.937378 0.965347 6.373045 -15.519794 3.871222 -20.822589 9.679100 -0.020600 0.926700 -2.547200 -8.778402 -0.503572 29.629152 -0.181844 -0.438347 -20.844078 -6.263028 10.517936 15.247372 -2.130200 4.803800 8.604600 -76.077477 -43.346003 18.645962 70.396574 -55.538623 -41.688505 -0.732862 0.310388 -78.253222 -7.125000 0.000000 0.000000 82.224580 1.829353 65.250581 -116.326425 49.935771 -79.724397 1.330268 1.564561 0.406308 7.125000 0.000000 0.000000 
1.904743 17.612075 3.507348 -8.813223 -31.871695 22.962240 -18.558160 13.359672 -2.010957 3.021573 -15.294953 -41.166647 -3.565560 29.640242 20.398032 0.016400 -0.826200 -2.270800 6.057253 23.785075 -16.270760 0.954909 6.392703 -15.601745 3.788209 -20.712239 10.170091 -0.021100 0.938400 -2.579400 -9.080523 -0.118997 29.401473 -0.133014 -0.237174 -20.828500 -6.121779 10.354698 15.591584 -2.104600 4.744200 8.632200 -76.726965 -43.734781 19.166450 70.181567 -55.528705 -41.498476 -0.734279 0.315132 -77.918332 -7.125000 0.000000 0.000000 82.467260 1.393707 64.837291 -116.997855 49.740174 -80.426304 1.332787 1.612386 0.417428 7.125000 0.000000 0.000000 
1.903044 17.608578 3.505050 -8.645637 -32.174567 23.013707 -18.739895 13.313623 -2.072019 3.024022 -15.288438 -41.175785 -3.591555 29.722359 20.333734 0.017600 -0.855800 -2.352200 5.932127 23.729203 -16.392552 0.941508 6.444649 -15.760340 3.749256 -20.721084 10.518763 -0.028700 1.094300 -3.008300 -9.529397 0.130239 29.058606 -0.102981 -0.135247 -20.930016 -6.577886 10.279921 16.240447 -2.298800 4.694800 8.779700 -77.370340 -44.030229 19.657676 69.178893 -55.426092 -40.631194 -0.737225 0.325937 -77.614981 -7.125000 0.000000 0.000000 82.608389 1.039746 64.432446 -116.986709 49.732389 -80.422878 1.320844 1.620868 0.176081 7.125000 0.000000 0.000000 
1.898348 17.609177 3.503052 -8.511840 -32.496401 22.972190 -18.854393 13.317777 -2.049211 3.004071 -15.261317 -41.099558 -3.656945 29.840516 20.139672 0.015000 -0.790800 -2.173500 5.819603 23.823265 -16.366539 0.935152 6.476779 -15.850560 3.733282 -20.746493 10.715958 -0.038400 1.265200 -3.478900 -9.952294 0.345630 28.684737 -0.020860 -0.043369 -21.130991 -7.128775 10.318775 16.997924 -2.508900 4.687600 9.007000 -77.728023 -43.974133 19.913050 68.327397 -55.341811 -39.904478 -0.736093 0.331415 -77.715162 -7.125000 0.000000 0.000000 82.563087 0.935603 64.177651 -116.516863 49.860135 -79.943137 1.291162 1.599967 -0.265882 7.125000 0.000000 0.000000 
1.893452 17.614173 3.502652 -8.401406 -32.698567 22.669122 -18.827235 13.357091 -1.769989 2.968558 -15.223239 -40.957601 -3.709480 29.859610 19.932144 0.016500 -0.828100 -2.276000 5.824089 23.916005 -16.022357 0.939259 6.491569 -15.859318 3.727365 -20.710244 10.749669 -0.048800 1.425200 -3.919600 -10.353950 0.432737 28.482271 -0.004651 -0.041618 -21.340803 -7.492088 10.439729 17.342243 -2.641400 4.725200 9.138800 -77.682182 -43.560805 19.874295 68.096382 -55.334807 -39.715387 -0.732966 0.330056 -78.178030 -7.125000 0.000000 0.000000 82.310499 1.149310 64.165494 -115.930831 50.028241 -79.335613 1.246361 1.564089 -1.058258 7.125000 0.000000 0.000000 
1.890655 17.617970 3.506849 -8.423808 -32.801196 22.388149 -18.691043 13.445756 -1.482136 2.931580 -15.188016 -40.806364 -3.734371 29.796158 19.787420 0.019100 -0.891300 -2.449700 5.998513 23.902256 -15.701703 0.950720 6.472838 -15.774160 3.686544 -20.536899 10.824629 -0.058500 1.561200 -4.294300 -10.537965 0.424381 28.560197 -0.040518 -0.093986 -21.302349 -7.793116 10.691149 17.339349 -2.717900 4.816500 9.197800 -77.473509 -42.887919 19.735207 68.494705 -55.413702 -40.068700 -0.727694 0.325984 -78.815086 -7.125000 0.000000 0.000000 81.686671 1.517442 64.416811 -115.588285 50.136115 -78.982247 1.178416 1.546830 -2.266927 7.125000 0.000000 0.000000 
1.887258 17.622066 3.515941 -8.501976 -32.876986 22.103565 -18.533776 13.624397 -1.177699 2.896344 -15.161236 -40.660740 -3.762879 29.705890 19.605023 0.016500 -0.830000 -2.281300 6.251616 23.810900 -15.406948 0.965542 6.428968 -15.623910 3.612857 -20.247250 10.963047 -0.067000 1.669900 -4.594100 -10.556701 0.391483 28.816083 -0.069636 -0.151492 -21.079978 -8.084576 11.052503 17.377037 -2.761200 4.948700 9.313600 -77.278336 -42.031004 19.823036 69.533805 -55.585238 -40.976421 -0.717563 0.315319 -79.661448 -7.125000 0.000000 0.000000 80.710229 1.818467 64.783855 -115.619175 50.148163 -79.032738 1.100417 1.562578 -3.521297 7.125000 0.000000 0.000000 
1.885160 17.625863 3.527830 -8.433452 -32.815835 21.850626 -18.476707 13.632726 -0.953031 2.868575 -15.136245 -40.546309 -3.773860 29.609587 19.480250 0.015300 -0.799700 -2.197900 6.344362 23.624427 -15.246141 0.981006 6.366789 -15.427225 3.564151 -19.980528 10.950220 -0.069600 1.701800 -4.682300 -10.777469 0.336124 28.961263 -0.102679 -0.240665 -20.845602 -8.437217 11.408905 17.516475 -2.834600 5.079600 9.440100 -77.271186 -40.804576 20.469039 71.244414 -55.859345 -42.463122 -0.703193 0.296772 -80.608664 -7.125000 0.000000 0.000000 79.495710 1.732091 65.183345 -116.107983 50.035782 -79.579186 1.030067 1.610185 -4.357599 7.125000 0.000000 0.000000 
1.886359 17.627561 3.541718 -8.263713 -32.575128 21.707647 -18.476447 13.395755 -0.864751 2.845536 -15.105474 -40.455029 -3.751307 29.517808 19.502999 0.020100 -0.914700 -2.514200 6.314310 23.329604 -15.261574 0.996263 6.295114 -15.208601 3.545954 -19.770609 10.788462 -0.067400 1.674600 -4.607300 -11.196058 0.275897 28.931016 -0.153864 -0.350699 -20.679479 -8.772065 11.683100 17.840073 -2.923300 5.183800 9.561000 -77.601252 -39.149478 21.780127 73.628419 -56.209109 -44.532201 -0.686171 0.271705 -81.702234 -7.125000 0.000000 0.000000 78.048057 1.142816 65.646351 -117.139606 49.771907 -80.697675 0.960644 1.683088 -5.030630 7.125000 0.000000 0.000000 
1.882162 17.631458 3.556305 -8.221310 -32.373951 21.635105 -18.404187 13.289324 -0.812216 2.824794 -15.076193 -40.364966 -3.701705 29.380648 19.621183 0.030800 -1.132400 -3.113100 6.410058 23.096779 -15.260981 1.012166 6.225201 -14.997207 3.512804 -19.542528 10.700393 -0.064900 1.644200 -4.523300 -11.462719 0.315585 28.914801 -0.147574 -0.379932 -20.532829 -9.322809 11.957040 18.103385 -3.092200 5.278000 9.641600 -78.223567 -37.262767 23.573287 76.419045 -56.548219 -46.957146 -0.669970 0.248070 -83.397970 -7.125000 0.000000 0.000000 76.400235 0.297765 65.606834 -118.657204 49.355265 -82.329810 0.784010 1.749951 -3.098658 7.125000 0.000000 0.000000 
1.869673 17.639151 3.569694 -8.284459 -32.260843 21.536077 -18.263668 13.376865 -0.715111 2.799669 -15.048600 -40.253864 -3.654802 29.218841 19.720669 0.039400 -1.280700 -3.521600 6.627966 22.979577 -15.176659 1.031858 6.141047 -14.747782 3.468562 -19.292587 10.657975 -0.060000 1.579900 -4.346100 -11.526682 0.428413 28.943042 0.022589 -0.315882 -20.443967 -10.398695 12.297092 17.833823 -3.443900 5.380600 9.536000 -79.074523 -35.154311 25.566867 79.293881 -56.829933 -49.462880 -0.656637 0.230217 -85.395707 -7.125000 0.000000 0.000000 74.506246 -0.957990 66.426784 -119.217203 49.198193 -83.030231 0.914528 1.733214 -4.767917 7.125000 0.000000 0.000000 
1.852888 17.647244 3.576588 -8.301072 -32.203904 21.519518 -18.194593 13.465514 -0.745370 2.772739 -15.013157 -40.129939 -3.603255 29.037930 19.820808 0.045900 -1.382300 -3.801300 6.754540 22.959469 -15.233574 1.052997 6.033613 -14.443655 3.433220 -19.062449 10.579295 -0.054600 1.508000 -4.147900 -11.730798 0.571055 28.843353 0.284925 -0.219354 -20.447771 -11.376766 12.573406 17.428465 -3.760700 5.468600 9.342600 -80.066206 -32.770487 27.624646 82.238413 -57.047643 -52.044400 -0.641384 0.207537 -86.677449 -7.125000 0.000000 0.000000 72.627623 -2.536110 66.853192 -120.513630 48.799113 -84.460570 0.892640 1.724161 -4.816283 7.125000 0.000000 0.000000 
1.833704 17.657935 3.581683 -8.311119 -32.178885 21.456349 -18.121715 13.592959 -0.756836 2.743468 -14.968041 -39.981373 -3.547086 28.802909 19.888654 0.052700 -1.481800 -4.075700 6.891094 22.976597 -15.235435 1.076698 5.919182 -14.109078 3.398032 -18.813640 10.482254 -0.049500 1.436000 -3.949300 -12.150834 0.765411 28.699859 0.466912 -0.128032 -20.497039 -11.702806 12.756772 17.442010 -3.853100 5.544500 9.282400 -81.024395 -30.382112 29.675899 84.895667 -57.180962 -54.373517 -0.630311 0.186778 -87.389201 -7.125000 0.000000 0.000000 70.910217 -4.354685 67.209073 -122.109005 48.277793 -86.137250 0.806512 1.775449 -4.960683 7.125000 0.000000 0.000000 
1.820316 17.668326 3.585580 -8.302959 -31.878595 21.437177 -17.976765 13.447187 -0.810643 2.716402 -14.918122 -39.841421 -3.494500 28.589751 19.949657 0.056200 -1.530000 -4.208500 7.007633 22.888133 -15.275197 1.100473 5.809526 -13.783365 3.402047 -18.664587 10.221125 -0.043100 1.340600 -3.686600 -12.657807 0.880731 28.652681 0.477645 -0.129223 -20.401150 -11.742773 12.919802 17.549001 -3.863400 5.626900 9.302100 -81.840936 -28.342035 31.426368 87.016242 -57.237096 -56.220731 -0.626532 0.174397 -88.290549 -7.125000 0.000000 0.000000 69.379898 -6.151360 67.474844 -123.506238 47.780156 -87.596635 0.729576 1.819506 -4.634775 7.125000 0.000000 0.000000 
1.817319 17.677018 3.590276 -8.248550 -31.228244 21.438002 -17.770525 13.000532 -0.872429 2.696458 -14.873490 -39.735090 -3.425044 28.360476 20.064224 0.062200 -1.609500 -4.427500 7.091594 22.615524 -15.366094 1.124288 5.695304 -13.445221 3.432077 -18.567406 9.815139 -0.037200 1.245200 -3.423800 -13.133993 0.854526 28.742311 0.366681 -0.234153 -20.164685 -11.719405 13.077700 17.542964 -3.862100 5.712600 9.315100 -82.726575 -26.614791 32.706175 88.897139 -57.246777 -57.869188 -0.618377 0.157173 -89.560255 -7.125000 0.000000 0.000000 68.004864 -7.873868 67.651259 -124.672031 47.334047 -88.799453 0.678546 1.915039 -4.203674 7.125000 0.000000 0.000000 
